PathFileType	4	(X/Y/Z)	C:/Users/opensim2020/Desktop/walking_exp_matlab/subject01_walking11_straight_04.trc	
DataRate	CameraRate	NumFrames	NumMarkers	Units	OrigDataRate	OrigDataStartFrame	OrigNumFrames	
100.00	100.00	7	44	mm	100.00	4113	278	
Frame#	Time	LFHD			RFHD			LBHD			RBHD			C7			T10			CLAV			STRN			RBAK			LSHO			LUPA			LELB			LFRM			LWRA			LWRB			LFIN			RSHO			RUPA			RELB			RFRM			RWRA			RWRB			RFIN			LASI			RASI			LPSI			RPSI			LTHI			LKNE			LTIB			LANK			LHEE			LTOE			RTHI			RKNE			RTIB			RANK			RHEE			RTOE			*39			*40			*41			*42			*43			
		X1	Y1	Z1	X2	Y2	Z2	X3	Y3	Z3	X4	Y4	Z4	X5	Y5	Z5	X6	Y6	Z6	X7	Y7	Z7	X8	Y8	Z8	X9	Y9	Z9	X10	Y10	Z10	X11	Y11	Z11	X12	Y12	Z12	X13	Y13	Z13	X14	Y14	Z14	X15	Y15	Z15	X16	Y16	Z16	X17	Y17	Z17	X18	Y18	Z18	X19	Y19	Z19	X20	Y20	Z20	X21	Y21	Z21	X22	Y22	Z22	X23	Y23	Z23	X24	Y24	Z24	X25	Y25	Z25	X26	Y26	Z26	X27	Y27	Z27	X28	Y28	Z28	X29	Y29	Z29	X30	Y30	Z30	X31	Y31	Z31	X32	Y32	Z32	X33	Y33	Z33	X34	Y34	Z34	X35	Y35	Z35	X36	Y36	Z36	X37	Y37	Z37	X38	Y38	Z38	X39	Y39	Z39	X40	Y40	Z40	X41	Y41	Z41	X42	Y42	Z42	X43	Y43	Z43	X44	Y44	Z44	

244	2.430	-921.45782	-650.81964	1648.07935	-1020.80353	-706.55042	1649.98816	-976.30695	-541.35504	1618.33105	-1082.19421	-598.00494	1620.42932	-997.13049	-495.89691	1419.38513	-1009.04846	-455.03867	1125.61768	-998.31824	-638.96466	1349.04102	-992.72998	-680.45068	1193.84998	-1070.39087	-435.49844	1222.82312	-836.80334	-580.85468	1383.66968	-749.52979	-571.29535	1200.43665	-746.88330	-583.78821	1047.98975	-719.93506	-653.86359	957.98383	-732.40186	-768.15778	878.00555	-712.68823	-717.38300	853.72180	-697.93347	-785.99872	805.54291	-1146.87830	-566.85980	1378.36145	-1243.97229	-490.12692	1183.45239	-1248.80017	-483.65915	1059.84460	-1285.41602	-498.02023	942.37933	-1279.20728	-570.57727	818.48560	-1312.94983	-522.64587	824.55695	-1314.62988	-551.98175	741.79718	-895.83154	-618.07184	916.13623	-1113.05945	-634.64661	919.46375	-965.97620	-436.27567	930.97345	-1110.38818	-448.93637	929.73132	-856.90350	-533.88428	587.82806	-876.93707	-497.47189	455.71786	-874.86621	-405.56271	287.91977	-938.23334	-331.54062	81.71958	-992.59454	-282.40128	60.58117	-934.03308	-472.50266	32.06327	-1190.23572	-657.40936	595.51953	-1160.68665	-722.09271	454.69031	-1179.33203	-738.23846	283.34705	-1144.53149	-802.40179	81.89289	-1095.78296	-772.53674	27.13774	-1138.50513	-948.02130	91.04554	-1002.97168	-691.85858	1685.33777	-3102.84692	1972.83459	1024.63647	-3138.38745	2013.07886	1022.27454						 
245	2.440	-922.79706	-657.98340	1647.33301	-1021.98126	-714.01660	1649.19556	-977.91486	-548.74719	1617.55396	-1083.67358	-605.66626	1619.64526	-998.52576	-503.34784	1418.45435	-1010.32507	-462.95578	1124.62439	-999.69073	-646.45935	1348.34546	-993.84930	-688.22827	1193.17346	-1071.58826	-443.24341	1221.66345	-838.16785	-588.31171	1383.10327	-750.83002	-578.61792	1199.83179	-748.06134	-590.94281	1047.63318	-720.97076	-660.97583	957.31628	-733.34772	-775.16412	877.10541	-713.64502	-724.25403	852.95349	-698.83624	-792.75989	804.59918	-1148.22449	-574.30078	1377.23816	-1244.95410	-497.77805	1182.21729	-1249.85852	-491.64511	1058.52039	-1286.49963	-505.73630	941.21716	-1280.34424	-578.19635	817.21320	-1314.09802	-530.22614	823.38385	-1315.69299	-559.47119	740.46155	-896.29382	-625.80499	915.35187	-1113.50366	-643.39972	918.60370	-967.38824	-444.32361	930.21490	-1111.66248	-457.59039	928.78906	-857.33282	-539.87952	587.39124	-877.19812	-502.57428	455.42856	-874.99335	-408.70303	288.66888	-937.96643	-332.23196	83.20621	-992.38031	-282.89093	62.53326	-933.95087	-472.61945	32.05504	-1189.72449	-667.49615	594.91327	-1160.53528	-731.22827	453.88837	-1179.23669	-745.59644	281.94424	-1144.34521	-807.26563	79.98724	-1095.08960	-777.14117	25.43904	-1138.53918	-953.13812	87.68353	-1004.18121	-699.25806	1684.50488	-3102.19482	1973.18274	1024.11536	-3138.35254	2013.09375	1022.27869						 
246	2.450	-924.26672	-665.16931	1646.57385	-1023.23590	-721.50909	1648.42200	-979.72711	-556.04120	1616.81628	-1085.23694	-613.30457	1618.79553	-999.50488	-511.06659	1417.36145	-1011.65228	-471.05905	1123.58313	-1001.12982	-654.10150	1347.61987	-995.02386	-696.12292	1192.57263	-1072.92822	-451.12885	1220.46326	-839.68939	-595.69940	1382.46814	-752.18457	-585.91705	1199.28760	-749.22845	-598.25055	1046.97974	-722.08484	-668.03198	956.63336	-734.32501	-781.95703	876.15338	-714.65417	-731.08374	852.07983	-699.78180	-799.48804	803.66602	-1149.84729	-581.84186	1376.30249	-1246.13855	-505.46259	1180.93896	-1251.04041	-499.51663	1057.30957	-1287.68323	-513.60376	939.98749	-1281.51599	-585.93573	815.99005	-1315.36731	-538.06396	822.19666	-1316.77271	-567.18860	739.12396	-896.82190	-633.64471	914.57275	-1113.94629	-652.36328	917.78021	-968.86609	-452.50949	929.47156	-1113.18054	-465.97916	927.88043	-857.86414	-546.13837	586.90240	-877.47913	-507.85309	455.14697	-875.18274	-411.97971	289.54944	-937.76587	-332.97800	84.76703	-992.23102	-283.55334	64.71710	-933.88513	-472.69434	32.03713	-1189.33972	-677.60046	594.66327	-1160.44128	-740.28656	453.03571	-1178.97278	-752.37775	280.40656	-1143.68433	-811.17078	77.68435	-1094.68030	-780.21198	24.25575	-1138.29285	-957.04681	83.79339	-1005.50092	-706.69141	1683.71411	-3102.98218	1972.73694	1024.67810	-3138.37646	2013.18408	1022.41467						 
247	2.460	-925.74280	-672.16266	1645.89758	-1024.60107	-728.96558	1647.68079	-981.60840	-563.37439	1616.01807	-1086.91687	-621.00330	1618.02173	-1001.28436	-518.77338	1416.30139	-1013.01758	-479.30261	1122.49744	-1002.67090	-661.77075	1346.93457	-996.29797	-704.13177	1191.94995	-1074.29761	-459.19687	1219.22998	-841.31665	-603.24213	1381.86719	-753.67053	-593.21631	1198.76294	-750.59406	-605.52740	1046.38928	-723.21912	-674.94812	955.96552	-735.33350	-788.66779	875.11847	-715.65253	-737.68042	851.19397	-700.67920	-805.91907	802.56323	-1151.50366	-589.40051	1375.30847	-1247.42261	-513.23187	1179.70081	-1252.40796	-507.34467	1056.22412	-1289.15845	-521.66608	938.86859	-1282.76465	-593.89386	814.74432	-1316.48755	-545.98999	820.95502	-1318.01782	-575.00647	737.89343	-897.35718	-641.91760	913.82288	-1114.42102	-661.46887	916.90521	-970.38092	-461.01129	928.68732	-1115.05664	-474.83215	927.17963	-858.50940	-552.59479	586.38800	-877.94049	-513.33276	454.78955	-875.42145	-415.44995	290.39575	-937.72412	-333.86765	86.38593	-991.95215	-284.08270	66.99052	-933.90430	-472.75671	31.96394	-1188.58301	-687.81085	594.08826	-1160.29211	-749.20520	452.07455	-1178.70313	-758.70734	278.58804	-1142.96033	-814.51276	75.49597	-1093.56030	-781.60516	23.35381	-1137.64307	-960.15039	79.18442	-1006.99371	-714.17346	1683.07288	-3102.79468	1972.84631	1023.88470	-3138.68726	2013.05823	1022.23639						 
248	2.470	-927.34320	-679.34692	1645.16760	-1026.02283	-736.45514	1646.98071	-983.61304	-570.74561	1615.24329	-1088.62927	-628.73090	1617.18176	-1002.78912	-526.37555	1415.34033	-1014.47186	-487.69336	1121.38110	-1004.33582	-669.54315	1346.26257	-997.62000	-712.33276	1191.40613	-1075.79065	-467.38065	1217.93860	-843.15277	-610.65411	1381.23340	-755.27258	-600.58948	1198.27258	-751.97461	-612.68616	1045.83667	-724.43994	-681.77789	955.27374	-736.37360	-795.23981	873.94940	-716.61298	-744.13318	850.29492	-701.64130	-812.21814	801.42047	-1153.27954	-597.12549	1374.32825	-1248.77148	-521.06891	1178.44189	-1253.68774	-515.40387	1054.96692	-1290.11230	-529.62384	937.59052	-1284.09778	-601.99780	813.55304	-1317.77234	-554.04596	819.70239	-1319.27893	-583.12512	736.83850	-897.95514	-650.29932	913.05548	-1114.98291	-670.79169	916.14618	-971.93469	-469.64020	927.95758	-1116.42847	-484.41214	926.22394	-859.24371	-559.27856	585.84845	-878.34045	-519.30280	454.50061	-875.62494	-419.19379	291.25723	-937.41455	-334.82809	88.24102	-991.68872	-284.92206	69.44194	-933.97321	-472.85217	31.85352	-1188.01172	-697.83618	593.56287	-1160.16772	-757.95795	450.87650	-1178.18811	-764.66101	276.75137	-1142.13953	-816.90637	73.19346	-1092.81030	-782.51434	22.59285	-1136.60413	-962.53772	73.80945	-1008.47046	-721.54382	1682.33142	-3102.44336	1972.93066	1024.64819	-3138.65381	2013.07495	1022.18378						 
249	2.480	-929.04803	-686.51941	1644.57092	-1027.49817	-744.03619	1646.49976	-985.73529	-578.08752	1614.53491	-1090.59961	-636.50220	1616.45728	-1004.76556	-533.92133	1414.45471	-1015.98132	-496.21735	1120.30017	-1006.04242	-677.44330	1345.66418	-999.00830	-720.54938	1190.97803	-1077.32666	-475.67410	1216.65186	-844.90430	-618.33405	1380.82434	-756.94159	-608.02704	1197.90491	-753.54462	-619.67139	1045.40283	-725.74432	-688.59143	954.56122	-737.41675	-801.67041	872.77423	-717.68890	-750.42590	849.39911	-702.59558	-818.24780	800.23004	-1155.11365	-604.99707	1373.37207	-1250.30591	-528.79980	1177.24597	-1255.09680	-523.57263	1053.79456	-1291.70679	-537.91461	936.37262	-1285.46143	-610.23596	812.31232	-1318.92664	-562.15802	818.46362	-1320.51074	-591.30560	735.41382	-898.69489	-658.76129	912.27692	-1115.48840	-680.01190	915.43567	-973.53979	-478.26471	927.30457	-1118.09082	-493.81451	925.54938	-859.97125	-566.27222	585.34448	-878.96802	-525.37115	454.13928	-875.99066	-423.11969	292.20847	-937.11108	-335.93777	90.18977	-991.40863	-285.79590	72.15636	-933.87531	-473.16446	31.98730	-1187.65161	-707.34698	592.94366	-1160.37109	-766.42841	449.75705	-1177.14221	-770.22003	275.10184	-1141.00769	-819.95313	72.31052	-1092.27429	-783.87305	23.47440	-1135.92383	-965.57251	67.36147	-1010.03027	-728.98627	1681.73999	-3102.81787	1972.93933	1023.98645	-3138.63452	2013.02258	1022.45752						 
250	2.490	-930.78058	-693.80139	1644.45410	-1028.99719	-751.64240	1646.31616	-987.79181	-585.64520	1614.08289	-1092.44897	-644.44214	1616.08557	-1007.87946	-541.05157	1414.06152	-1017.57104	-504.79068	1119.48962	-1007.82379	-685.30701	1345.23584	-1000.43604	-728.76721	1190.87292	-1078.93396	-484.01144	1215.60986	-846.80408	-625.79956	1380.47412	-758.71429	-615.53931	1197.65430	-755.09912	-626.96118	1044.90588	-727.08533	-695.16956	953.94098	-738.44598	-807.87689	871.57098	-718.77631	-756.54510	848.39124	-703.62781	-824.11591	798.93292	-1157.11243	-612.98492	1372.53479	-1251.96899	-536.85199	1176.07129	-1256.51355	-531.78027	1052.54907	-1292.80774	-546.05139	935.11090	-1286.77515	-618.66162	811.18921	-1320.11536	-570.49506	817.15613	-1321.81018	-599.63605	734.27881	-899.48877	-667.49976	911.66168	-1116.13049	-689.04266	915.09631	-975.10724	-486.95044	926.80353	-1119.79199	-503.32208	925.05414	-860.88300	-573.46509	584.78729	-879.78101	-531.91437	453.78207	-876.43744	-427.39392	293.26889	-936.59222	-337.24271	92.39601	-990.65070	-286.61890	75.17300	-933.45752	-473.26630	32.15776	-1187.62170	-716.17761	593.06671	-1161.04675	-774.60626	449.17542	-1175.30579	-776.43304	274.40854	-1140.31201	-824.38361	72.42406	-1091.59155	-785.58276	24.45560	-1135.34692	-969.65063	62.58487	-1011.63898	-736.67438	1681.63000	-3102.23486	1973.16541	1024.11035	-3138.32520	2013.07349	1022.45380						 
